<svg xmlns="http://www.w3.org/2000/svg" width="132" height="112" viewBox="0 0 132 112" fill="none">
  <g clip-path="url(#clip0_9194_2534)">
    <path d="M0 79.7778H132V86.3545C132 90.0777 129.161 92.9312 125.442 92.9312H6.55756C2.84527 92.9312 0 90.0838 0 86.3545V79.7778Z" fill="#BBD3EA"/>
    <path d="M132 82.6314H0V6.57671C0 2.84746 2.83917 0 6.55756 0H125.442C129.155 0 132 2.84746 132 6.57671V82.6314Z" fill="#2A3651"/>
    <path d="M132 82.6314H0V6.57671C0 2.84746 2.83917 0 6.55756 0H125.442C129.155 0 132 2.84746 132 6.57671V82.6314Z" fill="#06162D"/>
    <path d="M125.662 6.1358H6.11792V76.4894H125.662V6.1358Z" fill="white"/>
    <path d="M74.7404 93.1517H57.2596L52.2346 107.836H79.7715L74.7465 93.1517H74.7404Z" fill="white"/>
    <path d="M74.7404 93.1517H57.2596L52.2346 107.836H79.7715L74.7465 93.1517H74.7404Z" fill="#E8EEF9"/>
    <path d="M84.5768 107.836H47.4233V112H84.5768V107.836Z" fill="#BBD3EA"/>
    <path d="M118.506 11.0653H13.2739C12.1915 11.0653 11.314 11.9454 11.314 13.031V68.3513C11.314 69.4369 12.1915 70.3169 13.2739 70.3169H118.506C119.589 70.3169 120.466 69.4369 120.466 68.3513V13.031C120.466 11.9454 119.589 11.0653 118.506 11.0653Z" fill="#EFF1F4"/>
    <path d="M12.2054 11.0653H119.575C120.069 11.0653 120.466 11.4633 120.466 11.9593V16.5643H11.314V11.9593C11.314 11.4633 11.7108 11.0653 12.2054 11.0653Z" fill="#273653"/>
    <path d="M16.8213 22.2101H115.502C115.863 22.2101 116.162 22.5041 116.162 22.8715V70.3169H16.1619V22.8715C16.1619 22.5102 16.4549 22.2101 16.8213 22.2101Z" fill="white"/>
    <path d="M26.3585 25.0454H21.2296C20.2787 25.0454 19.5078 25.8185 19.5078 26.7723C19.5078 27.726 20.2787 28.4991 21.2296 28.4991H26.3585C27.3094 28.4991 28.0803 27.726 28.0803 26.7723C28.0803 25.8185 27.3094 25.0454 26.3585 25.0454Z" fill="#D9F1FF"/>
    <path d="M88.8019 25.0454H83.6731C82.7222 25.0454 81.9513 25.8185 81.9513 26.7723C81.9513 27.726 82.7222 28.4991 83.6731 28.4991H88.8019C89.7529 28.4991 90.5237 27.726 90.5237 26.7723C90.5237 25.8185 89.7529 25.0454 88.8019 25.0454Z" fill="#D9F1FF"/>
    <path d="M45.5672 25.0454H40.4384C39.4874 25.0454 38.7166 25.8185 38.7166 26.7723C38.7166 27.726 39.4874 28.4991 40.4384 28.4991H45.5672C46.5181 28.4991 47.289 27.726 47.289 26.7723C47.289 25.8185 46.5181 25.0454 45.5672 25.0454Z" fill="#D9F1FF"/>
    <path d="M59.2012 25.0454H49.6702C48.7192 25.0454 47.9484 25.8185 47.9484 26.7723C47.9484 27.726 48.7192 28.4991 49.6702 28.4991H59.2012C60.1522 28.4991 60.9231 27.726 60.9231 26.7723C60.9231 25.8185 60.1522 25.0454 59.2012 25.0454Z" fill="#D9F1FF"/>
    <path d="M72.7376 25.0454H63.2066C62.2556 25.0454 61.4847 25.8185 61.4847 26.7723C61.4847 27.726 62.2556 28.4991 63.2066 28.4991H72.7376C73.6886 28.4991 74.4594 27.726 74.4594 26.7723C74.4594 25.8185 73.6886 25.0454 72.7376 25.0454Z" fill="#D9F1FF"/>
    <path d="M45.5672 29.3748H40.4384C39.4874 29.3748 38.7166 30.1479 38.7166 31.1016C38.7166 32.0553 39.4874 32.8284 40.4384 32.8284H45.5672C46.5181 32.8284 47.289 32.0553 47.289 31.1016C47.289 30.1479 46.5181 29.3748 45.5672 29.3748Z" fill="#D9F1FF"/>
    <path d="M55.8248 29.3748H49.6702C48.7192 29.3748 47.9484 30.1479 47.9484 31.1016C47.9484 32.0553 48.7192 32.8284 49.6702 32.8284H55.8248C56.7757 32.8284 57.5466 32.0553 57.5466 31.1016C57.5466 30.1479 56.7757 29.3748 55.8248 29.3748Z" fill="#D9F1FF"/>
    <path d="M72.7377 29.3748H59.9645C59.0136 29.3748 58.2427 30.1479 58.2427 31.1016C58.2427 32.0553 59.0136 32.8284 59.9645 32.8284H72.7377C73.6886 32.8284 74.4595 32.0553 74.4595 31.1016C74.4595 30.1479 73.6886 29.3748 72.7377 29.3748Z" fill="#D9F1FF"/>
    <path d="M48.8703 12.4247H16.1619V15.2048H48.8703V12.4247Z" fill="white"/>
    <path d="M100.201 13.1228H91.9463V14.5129H100.201V13.1228Z" fill="white"/>
    <path d="M90.2063 13.1228H81.9513V14.5129H90.2063V13.1228Z" fill="white"/>
    <path d="M110.435 13.1228H102.18V14.5129H110.435V13.1228Z" fill="white"/>
    <path d="M114.934 15.0456C115.612 15.0456 116.162 14.4945 116.162 13.8148C116.162 13.135 115.612 12.5839 114.934 12.5839C114.257 12.5839 113.707 13.135 113.707 13.8148C113.707 14.4945 114.257 15.0456 114.934 15.0456Z" fill="white"/>
    <path d="M25.3206 37.6354H18.2867V39.3317H25.3206V37.6354Z" fill="#273653"/>
    <path d="M25.3206 18.5422H18.2867V20.2384H25.3206V18.5422Z" fill="#273653"/>
    <path d="M41.5924 18.5422H29.0023V20.2384H41.5924V18.5422Z" fill="#273653"/>
    <path d="M28.6665 42.3567H18.2867V44.0529H28.6665V42.3567Z" fill="#E8EEF9"/>
    <path d="M67.9508 42.3567H47.6492V44.0529H67.9508V42.3567Z" fill="#E8EEF9"/>
    <path d="M81.7253 42.3567H72.3958V44.0529H81.7253V42.3567Z" fill="#E8EEF9"/>
    <path d="M94.6573 42.3567H91.3419V44.0529H94.6573V42.3567Z" fill="#E8EEF9"/>
    <path d="M113.39 42.3567H101.251V44.0529H113.39V42.3567Z" fill="#E8EEF9"/>
    <path d="M38.3745 42.3567H33.9784V44.0529H38.3745V42.3567Z" fill="#E8EEF9"/>
    <path d="M41.0122 37.6354H33.9784V39.3317H41.0122V37.6354Z" fill="#273653"/>
    <path d="M96.0067 37.6354H91.3358V39.3317H96.0067V37.6354Z" fill="#273653"/>
    <path d="M105.922 37.6354H101.251V39.3317H105.922V37.6354Z" fill="#273653"/>
    <path d="M59.9522 37.6354H47.6492V39.3317H59.9522V37.6354Z" fill="#273653"/>
    <path d="M84.6988 37.6354H72.3958V39.3317H84.6988V37.6354Z" fill="#273653"/>
    <path d="M18.2867 46.9371H113.39" stroke="#E8EEF9" stroke-width="0.25" stroke-miterlimit="10"/>
    <path d="M28.6665 49.4662H18.2867V51.1624H28.6665V49.4662Z" fill="#E8EEF9"/>
    <path d="M67.9508 49.4662H47.6492V51.1624H67.9508V49.4662Z" fill="#E8EEF9"/>
    <path d="M81.7253 49.4662H72.3958V51.1624H81.7253V49.4662Z" fill="#E8EEF9"/>
    <path d="M94.6573 49.4662H91.3419V51.1624H94.6573V49.4662Z" fill="#E8EEF9"/>
    <path d="M113.39 49.4662H101.251V51.1624H113.39V49.4662Z" fill="#E8EEF9"/>
    <path d="M38.3745 49.4662H33.9784V51.1624H38.3745V49.4662Z" fill="#E8EEF9"/>
    <path d="M18.2867 54.0527H113.39" stroke="#E8EEF9" stroke-width="0.25" stroke-miterlimit="10"/>
    <path d="M28.6665 56.7777H18.2867V58.4739H28.6665V56.7777Z" fill="#E8EEF9"/>
    <path d="M67.9508 56.7777H47.6492V58.4739H67.9508V56.7777Z" fill="#E8EEF9"/>
    <path d="M81.7253 56.7777H72.3958V58.4739H81.7253V56.7777Z" fill="#E8EEF9"/>
    <path d="M94.6573 56.7777H91.3419V58.4739H94.6573V56.7777Z" fill="#E8EEF9"/>
    <path d="M113.39 56.7777H101.251V58.4739H113.39V56.7777Z" fill="#E8EEF9"/>
    <path d="M38.3745 56.7777H33.9784V58.4739H38.3745V56.7777Z" fill="#E8EEF9"/>
    <path d="M18.2867 61.3582H113.39" stroke="#E8EEF9" stroke-width="0.25" stroke-miterlimit="10"/>
    <path d="M28.6665 63.9362H18.2867V65.6324H28.6665V63.9362Z" fill="#E8EEF9"/>
    <path d="M67.9508 63.9362H47.6492V65.6324H67.9508V63.9362Z" fill="#E8EEF9"/>
    <path d="M81.7253 63.9362H72.3958V65.6324H81.7253V63.9362Z" fill="#E8EEF9"/>
    <path d="M94.6573 63.9362H91.3419V65.6324H94.6573V63.9362Z" fill="#E8EEF9"/>
    <path d="M113.39 63.9362H101.251V65.6324H113.39V63.9362Z" fill="#E8EEF9"/>
    <path d="M38.3745 63.9362H33.9784V65.6324H38.3745V63.9362Z" fill="#E8EEF9"/>
    <path d="M18.2867 68.5227H113.39" stroke="#E8EEF9" stroke-width="0.25" stroke-miterlimit="10"/>
  </g>
  <defs>
    <clipPath id="clip0_9194_2534">
      <rect width="132" height="112" fill="white"/>
    </clipPath>
  </defs>
</svg>