<svg xmlns="http://www.w3.org/2000/svg" width="74" height="78" viewBox="0 0 74 78" fill="none">
<g clip-path="url(#clip0_8596_32049)">
<path d="M68.0868 22.3865V51.3035H22.9761V22.3865L28.2041 18.1799L28.6016 17.8628L34.2679 13.3039L34.6608 12.9869L40.3328 8.4269L40.7257 8.10984L45.5292 4.24512L50.3326 8.10984L50.7312 8.4269L56.3975 12.9869L56.7961 13.3039L62.4624 17.8628L62.8553 18.1799L68.0868 22.3865Z" fill="#EF8A1B"/>
<path d="M50.7309 8.42741H40.3325L40.7254 8.11035H50.3323L50.7309 8.42741Z" fill="#DD750E"/>
<path d="M56.7957 13.3044H34.2676L34.6605 12.9873H56.3972L56.7957 13.3044Z" fill="#DD750E"/>
<path d="M62.8552 18.1803H28.2041L28.6016 17.8633H62.4623L62.8552 18.1803Z" fill="#DD750E"/>
<path d="M68.0868 22.7402H22.9761V23.0573H68.0868V22.7402Z" fill="#DD750E"/>
<path d="M68.0868 27.6162H22.9761V27.9333H68.0868V27.6162Z" fill="#DD750E"/>
<path d="M68.0868 32.4932H22.9761V32.8102H68.0868V32.4932Z" fill="#DD750E"/>
<path d="M68.0868 37.3691H22.9761V37.6862H68.0868V37.3691Z" fill="#DD750E"/>
<path d="M68.0868 42.2461H22.9761V42.5632H68.0868V42.2461Z" fill="#DD750E"/>
<path d="M68.0868 47.123H22.9761V47.4401H68.0868V47.123Z" fill="#DD750E"/>
<path opacity="0.2" d="M22.9762 27.0813L48.4508 6.59362L45.5316 4.24512L22.9751 22.3865L22.9762 27.0813Z" fill="#222F2F"/>
<path d="M45.5315 0.764648L19.3628 21.275V51.3027H22.975V22.3858L45.5315 4.24437L68.0891 22.3858V51.3027H71.7013V21.275L45.5315 0.764648Z" fill="#ECEBE7"/>
<path d="M53.8849 10.9619L39.6807 22.3862V51.3031H68.0891V22.3862L53.8849 10.9619Z" fill="#008CE7"/>
<path opacity="0.2" d="M53.8849 10.9619L39.6807 22.3862V26.1819L53.8849 14.7587L68.0891 26.1819V22.3862L53.8849 10.9619Z" fill="#222F2F"/>
<path d="M62.4974 31.2861H36.2891V51.3005H62.4974V31.2861Z" fill="#B6E2FF"/>
<path d="M62.4972 31.377H36.29V35.8792H62.4972V31.377Z" fill="#B6E2FF"/>
<path opacity="0.2" d="M40.7302 31.2861L36.2891 38.6612V37.0487L39.7609 31.2861H40.7302Z" fill="white"/>
<path opacity="0.2" d="M49.1016 31.2871L37.0443 51.3015H36.0693L48.1221 31.2871H49.1016Z" fill="white"/>
<path opacity="0.2" d="M62.4962 34.0869V35.7084L53.1034 51.3009H52.1284L62.4962 34.0869Z" fill="white"/>
<path d="M62.2708 31.5136V51.0761H36.5165V31.5136H62.2708ZM62.4972 31.2871H36.29V51.3026H62.4972V31.2871Z" fill="white"/>
<path d="M36.2891 36.0703H62.4974" stroke="#FCFCFC" stroke-width="0.226471" stroke-miterlimit="10"/>
<path d="M46.752 31.2871V51.3026" stroke="#FCFCFC" stroke-width="0.226471" stroke-miterlimit="10"/>
<path d="M56.6484 36.0703V51.3027" stroke="#FCFCFC" stroke-width="0.226471" stroke-miterlimit="10"/>
<path d="M36.0684 21.2747V51.3025H39.6806V22.3856L56.1835 9.11212L53.8848 7.31055L36.0684 21.2747Z" fill="#ECEBE7"/>
<path d="M73.726 51.2617H3.79639V56.2146H73.726V51.2617Z" fill="#DBDFE6"/>
<path d="M71.6842 56.2158H5.83789V77.897H71.6842V56.2158Z" fill="#E9F6FF"/>
<path opacity="0.3" d="M68.0891 46.3564H39.6807V51.2992H68.0891V46.3564Z" fill="white"/>
<path d="M68.0891 45.2021H39.6807V45.6891H68.0891V45.2021Z" fill="#273653"/>
<path d="M41.8521 46.3572V45.2021H41.4535V46.3572H41.8521Z" fill="#273653"/>
<path d="M54.084 46.3581V45.2031H53.6854V46.3581H54.084Z" fill="#273653"/>
<path d="M66.3169 46.3581V45.2031H65.9183V46.3581H66.3169Z" fill="#273653"/>
<path opacity="0.2" d="M68.0891 46.3564H39.6807V46.8173H68.0891V46.3564Z" fill="white"/>
<path d="M62.498 59.2871H25.2764V77.9336H62.498V59.2871Z" fill="white"/>
<path d="M34.6693 60.3896H26.6602V77.9366H34.6693V60.3896Z" fill="#B6E2FF"/>
<path d="M51.7188 60.3896H36.0527V77.9366H51.7188V60.3896Z" fill="#B6E2FF"/>
<path d="M61.1122 60.3896H53.103V77.9366H61.1122V60.3896Z" fill="#B6E2FF"/>
<g opacity="0.1">
<path d="M34.6694 60.3906H26.6592V64.2712H34.6694V60.3906Z" fill="#222F2F"/>
</g>
<g opacity="0.1">
<path d="M51.7195 60.3906H36.0522V64.2712H51.7195V60.3906Z" fill="#222F2F"/>
</g>
<g opacity="0.1">
<path d="M61.1113 60.3906H53.1011V64.2712H61.1113V60.3906Z" fill="#222F2F"/>
</g>
<path opacity="0.2" d="M32.776 60.3896L26.6602 70.5412V68.9151L31.7965 60.3896H32.776Z" fill="white"/>
<path opacity="0.2" d="M42.6344 60.3896L35.5187 72.2069L34.1349 74.5033L32.0684 77.9366H31.0923L34.1349 72.8852L35.5187 70.5899L41.6594 60.3896H42.6344Z" fill="white"/>
<path opacity="0.2" d="M52.9952 60.3896L45.8795 72.2069L44.4958 74.5033L42.4281 77.9366H41.4531L44.4958 72.8852L45.8795 70.5899L52.0202 60.3896H52.9952Z" fill="white"/>
<path opacity="0.2" d="M61.1127 62.377V63.994L52.7152 77.9366H51.7402L61.1127 62.377Z" fill="white"/>
<path opacity="0.2" d="M61.113 72.0283V73.6498L58.5301 77.9369H57.5552L61.113 72.0283Z" fill="white"/>
<path d="M31.3028 27.335H5.85547V51.1755H31.3028V27.335Z" fill="white"/>
<path d="M28.6448 29.9502H8.5127V48.8107H28.6448V29.9502Z" fill="#E9F6FF"/>
<path d="M28.6432 37.3115H14.3857V48.8287H28.6432V37.3115Z" fill="#B6E2FF"/>
<path opacity="0.2" d="M28.6455 37.3115H14.3857V40.1571H28.6455V37.3115Z" fill="#222F2F"/>
<path opacity="0.2" d="M22.2986 37.3115L15.3607 48.8287H14.3857L21.318 37.3115H22.2986Z" fill="white"/>
<path opacity="0.2" d="M28.6428 39.1445V40.7661L23.7884 48.8284H22.8135L28.6428 39.1445Z" fill="white"/>
<path opacity="0.2" d="M28.6426 45.1943V46.8125L27.4276 48.8281H26.4526L28.6426 45.1943Z" fill="white"/>
<path d="M28.6454 37.2783H15.167V38.0914H28.6454V37.2783Z" fill="white"/>
<path d="M23.0614 37.5938H22.04V48.829H23.0614V37.5938Z" fill="white"/>
<path d="M15.4071 37.3115H14.3857V48.8287H15.4071V37.3115Z" fill="white"/>
<path opacity="0.3" d="M28.6453 43.8848H8.51318V48.8275H28.6453V43.8848Z" fill="white"/>
<path d="M28.6453 42.7314H8.51318V43.2184H28.6453V42.7314Z" fill="#273653"/>
<path d="M10.6836 43.8864V42.7314H10.285V43.8864H10.6836Z" fill="#273653"/>
<path d="M18.7783 43.8864V42.7314H18.3797V43.8864H18.7783Z" fill="#273653"/>
<path d="M26.8726 43.8864V42.7314H26.474V43.8864H26.8726Z" fill="#273653"/>
<path opacity="0.2" d="M28.6453 43.8848H8.51318V44.3456H28.6453V43.8848Z" fill="white"/>
<path opacity="0.2" d="M28.6448 29.9502H8.5127V32.4923H28.6448V29.9502Z" fill="#222F2F"/>
<g style="mix-blend-mode:multiply" opacity="0.5">
<path d="M71.7018 56.2539H5.85547V57.8392H71.7018V56.2539Z" fill="#536B82"/>
</g>
<path d="M21.8975 60.2393H5.85547V64.421H21.8975V60.2393Z" fill="white"/>
<path d="M21.1287 60.8516H5.85547V63.8059H21.1287V60.8516Z" fill="#B6E2FF"/>
<path d="M21.126 60.8525H13.4917V63.808H21.126V60.8525Z" fill="#A6BED5"/>
<path opacity="0.2" d="M9.35136 60.8516L7.57017 63.8059H6.59521L8.37075 60.8516H9.35136Z" fill="white"/>
<path opacity="0.2" d="M19.4031 60.8516L17.6219 63.8059H16.647L18.4282 60.8516H19.4031Z" fill="white"/>
<path d="M71.6843 60.2393H65.8696V64.421H71.6843V60.2393Z" fill="white"/>
<path d="M71.7011 60.8525H66.6372V63.8068H71.7011V60.8525Z" fill="#B6E2FF"/>
<path d="M71.7 60.8525H70.1362V63.808H71.7V60.8525Z" fill="#A6BED5"/>
<path opacity="0.2" d="M69.3969 60.8516L67.6146 63.8059H66.6396L68.4163 60.8516H69.3969Z" fill="white"/>
<path opacity="0.2" d="M71.7011 60.8525V61.8524L70.5223 63.8068H69.5474L71.3286 60.8525H71.7011Z" fill="white"/>
<path d="M9.0095 70.4497C9.0095 70.4497 9.16463 74.6745 8.81247 77.9028H14.0371C14.1051 77.5428 14.1742 77.1747 14.2466 76.7988C14.8875 73.4765 16.2917 63.8888 16.2917 63.8888L3.82898 63.4404C3.82898 63.4404 3.79614 63.7179 3.75085 64.1912C3.74632 64.2263 3.74066 64.2614 3.73839 64.2988C3.68857 64.7868 3.62629 65.4549 3.56288 66.226C3.54816 66.3857 3.5357 66.5487 3.52325 66.7163C3.36019 68.7772 3.21525 71.4054 3.31603 73.3474C3.42813 75.5124 3.44172 76.4783 3.50173 77.9017H7.33814C7.7356 75.4354 9.0095 70.4486 9.0095 70.4486V70.4497Z" fill="#AA6F29"/>
<path d="M11.2532 31.8438C12.4546 31.8438 14.6956 32.5368 14.6956 35.8636C14.6956 35.8636 14.9492 35.4243 15.2731 35.61C15.5969 35.7945 15.4814 36.8578 15.2731 37.4806C15.0647 38.1045 14.6095 38.2359 14.3321 38.2121C14.3321 38.2121 13.9992 39.2165 13.7229 39.6559C13.4455 40.0952 12.757 40.7656 12.757 40.7656L12.7785 42.6317H8.55143C8.55143 42.6317 8.55143 41.223 8.55143 40.53C8.55143 39.837 7.54703 38.2427 7.54703 38.2427C7.54703 38.2427 7.08956 38.4182 6.77477 37.8396C6.41694 37.1794 6.25388 35.8659 6.5834 35.6088C7.10201 35.2057 7.30244 36.0708 7.30244 36.0708C7.30244 36.0708 7.53457 33.4608 8.92057 32.8142C10.3066 32.1676 11.2532 31.8438 11.2532 31.8438Z" fill="#F8C6A3"/>
<path d="M14.704 36.229C14.7788 35.5587 15.0528 34.2327 14.9282 33.0041C14.8037 31.7755 14.2828 30.8809 13.908 30.7971C13.5332 30.7133 13.5128 31.1097 13.0961 31.1923C13.0961 31.1923 13.2626 30.6929 12.9093 30.214C12.5548 29.735 12.2627 30.3204 11.5765 30.6714C10.7419 31.0995 10.3592 30.8979 9.75339 31.2727C9.03887 31.7155 9.01849 32.2375 9.01849 32.2375C9.01849 32.2375 8.62443 32.0767 8.13072 32.3575C7.51133 32.7097 7.02555 33.9247 7.22597 36.169C7.40375 38.162 7.89406 39.7574 8.55083 40.5274C9.20646 41.2974 11.7769 41.2397 12.7564 40.763C12.7564 40.763 13.5751 40.5206 14.1605 38.6885C14.5251 37.5448 14.6553 36.6718 14.704 36.2279V36.229Z" fill="#111316"/>
<path d="M28.7285 42.3269L30.4826 36.5938L30.4927 36.5983C30.5097 36.3922 30.572 35.7343 30.6796 35.4116C30.8075 35.0266 31.6579 33.567 31.8504 33.0529C32.0429 32.54 32.3475 31.5933 32.6521 31.7054C32.9567 31.8175 32.2989 33.7595 32.2989 33.7595C32.2989 33.7595 32.6521 33.6316 32.8118 33.7595C32.9726 33.8875 32.9398 34.2091 32.9398 34.2091C32.9398 34.2091 33.2444 34.3053 33.3565 34.4502C33.4686 34.5952 33.3565 35.1081 33.3565 35.1081C33.3565 35.1081 33.5014 35.3969 33.549 35.6381C33.5965 35.8793 33.2285 36.0231 32.7473 36.3118C32.266 36.6006 31.6353 37.066 31.6353 37.066C31.6353 37.066 30.9083 42.2431 30.6513 44.2111C30.3942 46.1792 29.6242 48.6602 29.6242 48.6602L27.0142 46.1361L28.7251 42.328L28.7285 42.3269Z" fill="#F8C6A3"/>
<path d="M15.8931 58.799C15.8931 58.799 16.4932 63.5118 16.8352 64.7948L18.2031 61.708L17.8611 58.585L15.8931 58.799Z" fill="#F8C6A3"/>
<path d="M17.8108 52.8878C17.8765 53.257 18.2637 53.4936 18.6374 53.5208C18.8843 53.5389 19.1277 53.4857 19.3666 53.4099C19.3315 52.3217 19.4448 51.2335 19.5999 50.1543C19.6078 51.1802 19.8037 52.2028 20.1785 53.1585C20.3926 53.1109 20.6111 53.0905 20.8251 53.1313C21.3177 53.2264 21.7503 53.642 22.2451 53.5684C22.5146 53.5276 22.7377 53.3498 22.9766 53.2219C23.117 53.146 23.2552 53.0837 23.399 53.0656C23.5224 52.4122 23.6028 51.751 23.6379 51.0851C23.7964 51.7713 23.8745 52.4779 23.8644 53.1811C24.1384 53.2989 24.4203 53.4053 24.7159 53.4121C25.0726 53.4246 25.4598 53.266 25.6104 52.9422C25.7214 52.7055 25.6908 52.4315 25.7158 52.1711C25.786 51.3841 26.3691 50.716 26.4473 49.929C26.565 48.7581 25.5753 47.8024 25.1281 46.7142C24.5019 45.189 24.965 43.4191 24.5404 41.8259C24.1135 40.2123 22.7128 38.8976 21.0765 38.5681C19.7992 38.3122 18.4041 39.2418 17.8312 40.4104C17.205 41.6798 17.4462 43.2051 17.0374 44.5605C16.7283 45.5932 16.4973 46.601 16.4067 47.6745C16.2538 49.5293 17.4801 51.0557 17.8119 52.8878H17.8108Z" fill="#2F1F38"/>
<path d="M30.2902 48.2956C31.084 47.2142 31.3489 40.3136 31.3489 40.3136L29.2314 40.1777L28.372 42.8116L27.2317 45.45C27.2317 45.45 24.8787 47.1191 23.8516 47.546C22.8246 47.974 20.8135 47.632 20.8135 47.632C20.8135 47.632 19.1841 47.906 17.5286 49.0531C17.2794 49.1199 16.9409 49.2739 16.6838 49.6193C16.6838 49.6193 14.8324 49.6714 15.3669 56.4859C15.3997 58.703 15.7111 59.5444 15.7111 59.5444L16.3407 62.0163L17.7029 61.0345L17.7335 61.4932L21.3423 61.2554L17.7324 61.4943C17.7324 61.4943 17.0258 63.5676 16.4506 66.1992C15.8934 68.7334 17.5965 77.2691 17.7245 77.9021H25.0021C25.8932 75.9193 27.9655 71.0468 28.0662 68.3813V68.3462C28.0685 68.3054 28.0708 68.2635 28.0685 68.2227C28.0957 66.7744 27.7548 65.2616 27.3517 63.99C27.3415 63.9526 27.3291 63.9141 27.3166 63.879C27.0199 62.9539 26.6961 62.1669 26.4674 61.6392C26.4492 61.5985 26.4345 61.5634 26.4198 61.5283H26.4175C26.1435 60.8862 26.4707 60.5397 26.5262 60.1898C26.5817 59.8399 26.43 59.1752 26.43 59.1752C26.781 56.9083 27.3812 53.2055 27.6167 52.7638C27.9587 52.1218 29.5202 50.1107 30.2913 48.2933L30.2902 48.2956Z" fill="#83D9FF"/>
<path d="M30.2902 48.2956C31.084 47.2142 31.3489 40.3136 31.3489 40.3136L29.2314 40.1777L28.372 42.8116L27.2317 45.45C27.2317 45.45 24.8787 47.1191 23.8516 47.546C22.8246 47.974 20.8135 47.632 20.8135 47.632C20.8135 47.632 19.1841 47.906 17.5286 49.0531C17.2794 49.1199 16.9409 49.2739 16.6838 49.6193C16.6838 49.6193 14.8324 49.6714 15.3669 56.4859C15.3997 58.703 15.7111 59.5444 15.7111 59.5444L16.3407 62.0163L17.7029 61.0345L17.7335 61.4932L21.3423 61.2554L17.7324 61.4943C17.7324 61.4943 17.0258 63.5676 16.4506 66.1992C15.8934 68.7334 17.5965 77.2691 17.7245 77.9021H25.0021C25.8932 75.9193 27.9655 71.0468 28.0662 68.3813V68.3462C28.0685 68.3054 28.0708 68.2635 28.0685 68.2227C28.0957 66.7744 27.7548 65.2616 27.3517 63.99C27.3415 63.9526 27.3291 63.9141 27.3166 63.879C27.0199 62.9539 26.6961 62.1669 26.4674 61.6392C26.4492 61.5985 26.4345 61.5634 26.4198 61.5283H26.4175C26.1435 60.8862 26.4707 60.5397 26.5262 60.1898C26.5817 59.8399 26.43 59.1752 26.43 59.1752C26.781 56.9083 27.3812 53.2055 27.6167 52.7638C27.9587 52.1218 29.5202 50.1107 30.2913 48.2933L30.2902 48.2956Z" fill="#59ACC9"/>
<path d="M30.2902 48.2956C31.084 47.2142 31.3489 40.3136 31.3489 40.3136L29.2314 40.1777L28.372 42.8116L27.2317 45.45C27.2317 45.45 24.8787 47.1191 23.8516 47.546C22.8246 47.974 20.8135 47.632 20.8135 47.632C20.8135 47.632 19.1841 47.906 17.5286 49.0531C17.2794 49.1199 16.9409 49.2739 16.6838 49.6193C16.6838 49.6193 14.8324 49.6714 15.3669 56.4859C15.3997 58.703 15.7111 59.5444 15.7111 59.5444L16.3407 62.0163L17.7029 61.0345L17.7335 61.4932L21.3423 61.2554L17.7324 61.4943C17.7324 61.4943 17.0258 63.5676 16.4506 66.1992C15.8934 68.7334 17.5965 77.2691 17.7245 77.9021H25.0021C25.8932 75.9193 27.9655 71.0468 28.0662 68.3813V68.3462C28.0685 68.3054 28.0708 68.2635 28.0685 68.2227C28.0957 66.7744 27.7548 65.2616 27.3517 63.99C27.3415 63.9526 27.3291 63.9141 27.3166 63.879C27.0199 62.9539 26.6961 62.1669 26.4674 61.6392C26.4492 61.5985 26.4345 61.5634 26.4198 61.5283H26.4175C26.1435 60.8862 26.4707 60.5397 26.5262 60.1898C26.5817 59.8399 26.43 59.1752 26.43 59.1752C26.781 56.9083 27.3812 53.2055 27.6167 52.7638C27.9587 52.1218 29.5202 50.1107 30.2913 48.2933L30.2902 48.2956Z" fill="#39A7C4"/>
<path d="M17.8108 52.8878C17.8765 53.257 18.2637 53.4936 18.6374 53.5208C18.8843 53.5389 19.1277 53.4857 19.3666 53.4099C19.3315 52.3217 19.4448 51.2335 19.5999 50.1543C19.6078 51.1802 19.8037 52.2028 20.1785 53.1585C20.3926 53.1109 20.6111 53.0905 20.8251 53.1313C21.3177 53.2264 21.7503 53.642 22.2451 53.5684C22.5146 53.5276 22.7377 53.3498 22.9766 53.2219C23.117 53.146 23.2552 53.0837 23.399 53.0656C23.5224 52.4122 23.6028 51.751 23.6379 51.0851C23.7964 51.7713 23.8745 52.4779 23.8644 53.1811C24.1384 53.2989 24.4203 53.4053 24.7159 53.4121C25.0726 53.4246 25.4598 53.266 25.6104 52.9422C25.7214 52.7055 25.6908 52.4315 25.7158 52.1711C25.786 51.3841 26.3691 50.716 26.4473 49.929C26.565 48.7581 25.5753 47.8024 25.1281 46.7142C24.5019 45.189 24.965 43.4191 24.5404 41.8259C24.1135 40.2123 22.7128 38.8976 21.0765 38.5681C19.7992 38.3122 18.4041 39.2418 17.8312 40.4104C17.205 41.6798 17.4462 43.2051 17.0374 44.5605C16.7283 45.5932 16.4973 46.601 16.4067 47.6745C16.2538 49.5293 17.4801 51.0557 17.8119 52.8878H17.8108Z" fill="#493214"/>
<path d="M22.3706 61.4537C20.3494 61.507 17.7042 61.2001 17.7042 61.2001C17.728 61.2907 17.6997 61.533 17.6963 61.5545C17.6884 61.6055 17.6793 61.6553 17.668 61.6904C17.668 61.6904 23.3479 62.2079 26.3452 61.3201V60.7607C26.3452 60.7607 25.0577 61.302 22.3695 61.4537H22.3706Z" fill="black"/>
<path d="M20.4345 47.6232L23.5156 50.5119L24.8122 45.4819C24.8122 45.4819 25.6694 45.003 26.3397 45.816C26.3397 45.816 26.8391 49.7317 26.6534 51.4393C26.479 53.0438 25.1768 55.4025 22.9313 54.423C21.6801 53.8772 21.2804 53.7583 20.5251 53.1718C18.6578 51.7212 18.0679 50.7281 18.0679 50.7281L20.4345 47.6221V47.6232Z" fill="#F8C6A3"/>
<path d="M4.12806 53.3651C4.12806 53.3651 3.38977 58.4346 3.32636 59.3654C3.26181 60.2962 3.13386 63.537 3.13386 63.537L1.72181 64.05C1.72181 64.05 1.01636 60.97 0.855561 58.0496C0.694767 55.1293 1.16016 52.5498 1.16016 52.5498L4.12806 53.3651Z" fill="#F8C6A3"/>
<path d="M3.13324 63.5373C3.13324 63.5373 3.78547 64.4896 3.74244 65.537C3.69941 66.5856 3.80699 67.7191 3.57146 67.633C3.33593 67.5469 3.20797 65.9435 2.82297 65.4079C2.43797 64.8734 1.72119 64.0491 1.72119 64.0491L3.13324 63.5361V63.5373Z" fill="#F8C6A3"/>
<path d="M1.72118 64.05C1.72118 64.05 1.34637 66.7563 1.53887 67.4187C1.73137 68.0823 2.62932 69.7933 2.9294 69.7072C3.22834 69.6211 3.46387 68.9157 3.27137 68.5092C3.07887 68.1027 2.77879 67.0326 2.77879 67.0326L3.24985 65.257L1.72004 64.0488L1.72118 64.05Z" fill="#F8C6A3"/>
<path d="M2.13843 47.1719C2.82237 45.6862 3.57878 44.94 4.06343 44.5833C4.09853 44.5562 4.13137 44.5335 4.16421 44.5131C4.33973 44.392 4.47108 44.3297 4.53336 44.3025C6.0292 43.1317 8.62795 41.9121 8.62795 41.9121C10.639 41.9597 12.1575 42.1057 13.3034 42.2914C13.3182 42.2937 13.3306 42.296 13.3442 42.2994C14.8502 42.5462 15.7074 42.8644 16.1898 43.1237C16.2102 43.1339 16.2272 43.1441 16.2453 43.1543C16.5805 43.3445 16.7186 43.4997 16.7673 43.571C17.1659 43.8881 17.6664 44.4542 18.4183 45.2809C20.1723 47.2059 22.3328 48.7889 22.3328 48.7889L18.7602 53.196L16.0188 51.2076C16.0188 51.2076 16.0188 51.2076 16.0188 51.2087C16.0188 51.2212 16.0188 51.2359 16.0166 51.2495C15.7153 56.943 16.4514 64.3633 16.4514 64.3633C16.4514 64.3633 13.0283 64.1923 10.074 63.8503C7.12305 63.5084 3.66258 64.3576 3.66258 64.3576C3.66258 64.3576 3.83923 59.7308 3.83923 57.2498C3.83923 56.1594 3.97398 55.1221 3.90377 53.624L1.01514 53.1745C1.01514 53.1745 1.01514 49.6132 2.13843 47.1742V47.1719Z" fill="#273653"/>
<path d="M2.13892 47.1719C2.82286 45.6862 3.57927 44.94 4.06392 44.5833C4.09902 44.5562 4.13186 44.5335 4.1647 44.5131C4.34021 44.392 4.47157 44.3297 4.53385 44.3025C6.02969 43.1317 8.62844 41.9121 8.62844 41.9121C10.6395 41.9597 12.158 42.1057 13.3039 42.2914C13.3186 42.2937 13.3311 42.296 13.3447 42.2994C14.8507 42.5462 15.7079 42.8644 16.1903 43.1237C16.2107 43.1339 16.2277 43.1441 16.2458 43.1543C16.581 43.3445 16.7191 43.4997 16.7678 43.571C17.1664 43.8881 17.6669 44.4542 18.4188 45.2809C20.1728 47.2059 22.3333 48.7889 22.3333 48.7889L18.7607 53.196L16.0193 51.2076C16.0193 51.2076 16.0193 51.2076 16.0193 51.2087C16.0193 51.2212 16.0193 51.2359 16.017 51.2495C15.7158 56.943 16.4519 64.3633 16.4519 64.3633C16.4519 64.3633 13.0288 64.1923 10.0745 63.8503C7.12354 63.5084 3.66307 64.3576 3.66307 64.3576C3.66307 64.3576 3.83971 59.7308 3.83971 57.2498C3.83971 56.1594 3.97446 55.1221 3.90426 53.624L1.01562 53.1745C1.01562 53.1745 1.01562 49.6132 2.13892 47.1742V47.1719Z" fill="#06151C"/>
</g>
<defs>
<clipPath id="clip0_8596_32049">
<rect width="73.9837" height="77.2358" fill="white" transform="translate(0.00830078 0.764648)"/>
</clipPath>
</defs>
</svg>