<svg xmlns="http://www.w3.org/2000/svg" width="124" height="129" viewBox="0 0 124 129" fill="none">
<g clip-path="url(#clip0_9190_35834)">
<path d="M103.258 22.0089C101.609 22.0089 100.261 23.3448 100.261 24.9809C100.261 27.4065 103.258 30.4798 103.258 30.4798C103.258 30.4798 106.256 27.4099 106.256 24.9809C106.256 23.3448 104.925 22.0089 103.258 22.0089Z" fill="#FFBFB8"/>
<path d="M103.258 22.0089C101.609 22.0089 100.261 23.3448 100.261 24.9809C100.261 27.4065 103.258 30.4798 103.258 30.4798C103.258 30.4798 106.256 27.4099 106.256 24.9809C106.256 23.3448 104.925 22.0089 103.258 22.0089Z" fill="url(#paint0_linear_9190_35834)"/>
<path d="M103.258 26.2426C104.018 26.2426 104.634 25.6294 104.634 24.8729C104.634 24.1165 104.018 23.5033 103.258 23.5033C102.499 23.5033 101.883 24.1165 101.883 24.8729C101.883 25.6294 102.499 26.2426 103.258 26.2426Z" fill="white"/>
<path d="M55.8082 35.476C52.4786 35.476 49.7554 38.1781 49.7554 41.4774C49.7554 46.3792 55.8082 52.5831 55.8082 52.5831C55.8082 52.5831 61.861 46.3792 61.861 41.4774C61.861 38.1748 59.1716 35.476 55.8082 35.476Z" fill="#D4E6F0"/>
<path d="M55.8082 35.476C52.4786 35.476 49.7554 38.1781 49.7554 41.4774C49.7554 46.3792 55.8082 52.5831 55.8082 52.5831C55.8082 52.5831 61.861 46.3792 61.861 41.4774C61.861 38.1748 59.1716 35.476 55.8082 35.476Z" fill="url(#paint1_linear_9190_35834)"/>
<path d="M55.8082 44.0311C57.344 44.0311 58.589 42.7911 58.589 41.2615C58.589 39.7318 57.344 38.4918 55.8082 38.4918C54.2724 38.4918 53.0273 39.7318 53.0273 41.2615C53.0273 42.7911 54.2724 44.0311 55.8082 44.0311Z" fill="white"/>
<path d="M55.7541 31.2523C55.7541 31.2523 55.7203 31.2523 55.7067 31.2523C55.5103 31.2287 55.3748 31.0802 55.4019 30.9183C55.4019 30.9082 55.4358 30.7058 55.5103 30.3279C55.5408 30.166 55.7237 30.0581 55.9201 30.0817C56.1166 30.1087 56.2487 30.2571 56.2182 30.419C56.1471 30.7867 56.1132 30.9925 56.1132 30.9959C56.0895 31.1443 55.9371 31.2523 55.7609 31.2523H55.7541Z" fill="#C5C8CD"/>
<path d="M56.1062 29.488C56.0859 29.488 56.0656 29.488 56.0418 29.4846C55.8488 29.4542 55.7201 29.3024 55.7539 29.1405C55.8386 28.7525 55.9301 28.3545 56.0249 27.953C56.0622 27.7945 56.2518 27.6899 56.4449 27.7202C56.638 27.7506 56.7633 27.9058 56.726 28.0677C56.6312 28.4658 56.5431 28.8605 56.4585 29.2451C56.428 29.3868 56.2756 29.488 56.1062 29.488ZM56.6651 27.1265C56.6414 27.1265 56.6143 27.1265 56.5906 27.1197C56.3975 27.086 56.2756 26.9308 56.3162 26.7689C56.4178 26.3776 56.5228 25.9829 56.6278 25.5882C56.6719 25.4296 56.8615 25.3284 57.0546 25.3655C57.2477 25.4026 57.3662 25.5612 57.3256 25.7197C57.2206 26.1077 57.1156 26.5024 57.014 26.8903C56.9801 27.0287 56.8311 27.1231 56.6651 27.1231V27.1265ZM57.3086 24.7785C57.2815 24.7785 57.2511 24.7785 57.224 24.7718C57.0309 24.7347 56.9157 24.5727 56.9598 24.4142C57.0749 24.0229 57.1935 23.6282 57.312 23.2436C57.3594 23.085 57.5559 22.9906 57.7456 23.031C57.9352 23.0715 58.0504 23.2335 58.003 23.3886C57.8844 23.7732 57.7659 24.1645 57.6507 24.5525C57.6101 24.6874 57.4644 24.7785 57.3052 24.7785H57.3086ZM58.0335 22.4508C58.003 22.4508 57.9691 22.4508 57.9386 22.4407C57.749 22.3968 57.6372 22.2349 57.688 22.0797C57.8167 21.6918 57.9488 21.3004 58.0843 20.9192C58.1385 20.764 58.3383 20.673 58.528 20.7168C58.7177 20.7607 58.8261 20.926 58.7719 21.0811C58.6398 21.459 58.5077 21.8469 58.379 22.2349C58.3349 22.3665 58.1927 22.4508 58.0335 22.4508ZM58.843 20.1433C58.8091 20.1433 58.7719 20.1399 58.738 20.1298C58.5483 20.0826 58.4433 19.9173 58.5009 19.7621C58.6432 19.3775 58.7922 18.9896 58.9412 18.6117C59.0022 18.4565 59.2054 18.3722 59.3917 18.4228C59.578 18.4734 59.683 18.6387 59.622 18.7939C59.473 19.1684 59.3274 19.5529 59.1851 19.9342C59.1377 20.0623 58.9954 20.1433 58.843 20.1433ZM59.7474 17.8594C59.7101 17.8594 59.6695 17.8527 59.6288 17.8426C59.4425 17.7886 59.3443 17.6199 59.4086 17.4681C59.5678 17.0835 59.7338 16.7023 59.8998 16.3312C59.9675 16.1794 60.1741 16.0985 60.357 16.1558C60.5433 16.2132 60.6382 16.3818 60.5704 16.5336C60.4079 16.9014 60.2419 17.2792 60.0827 17.6604C60.0319 17.7818 59.893 17.8594 59.744 17.8594H59.7474ZM102.063 17.1577C101.927 17.1577 101.799 17.0936 101.738 16.9857C101.541 16.6315 101.331 16.2671 101.118 15.9062C101.03 15.7611 101.104 15.5823 101.28 15.5115C101.456 15.4406 101.673 15.5013 101.758 15.6464C101.975 16.0141 102.188 16.3818 102.388 16.7394C102.469 16.8879 102.391 17.0633 102.212 17.1308C102.164 17.1476 102.114 17.1577 102.063 17.1577ZM60.7533 15.6059C60.7093 15.6059 60.6653 15.5992 60.6246 15.5857C60.4417 15.525 60.3503 15.3563 60.4214 15.2045C60.6009 14.8266 60.7838 14.4522 60.9701 14.0878C61.0446 13.936 61.2546 13.8652 61.4375 13.9293C61.6204 13.9934 61.7051 14.1654 61.6306 14.3139C61.4477 14.6748 61.2648 15.0459 61.0887 15.4204C61.0345 15.5351 60.899 15.6093 60.7567 15.6093L60.7533 15.6059ZM100.779 15.0021C100.65 15.0021 100.525 14.9447 100.461 14.8435C100.237 14.4893 100.007 14.1351 99.773 13.791C99.6782 13.6493 99.7391 13.4705 99.9119 13.3895C100.085 13.3086 100.301 13.3625 100.396 13.5042C100.63 13.8517 100.864 14.2127 101.091 14.5703C101.182 14.7153 101.114 14.8941 100.942 14.9683C100.887 14.9919 100.833 15.0021 100.776 15.0021H100.779ZM61.8745 13.3929C61.8271 13.3929 61.7762 13.3862 61.7288 13.3659C61.5493 13.2984 61.468 13.1264 61.5493 12.9746C61.7492 12.6035 61.9592 12.2324 62.1658 11.8748C62.2504 11.7264 62.4638 11.6657 62.6434 11.7365C62.8229 11.8073 62.8974 11.9828 62.8127 12.1312C62.6095 12.4854 62.4029 12.8498 62.2064 13.2175C62.1454 13.3288 62.0167 13.3929 61.8812 13.3929H61.8745ZM99.3632 12.9004C99.2412 12.9004 99.1227 12.8498 99.0549 12.7553C98.8077 12.4112 98.557 12.0705 98.303 11.7365C98.198 11.5982 98.2488 11.416 98.4148 11.3283C98.5807 11.2406 98.8009 11.2844 98.9059 11.4228C99.1633 11.7601 99.4207 12.1076 99.668 12.4551C99.7696 12.5967 99.712 12.7755 99.5427 12.8599C99.4851 12.8869 99.4241 12.9004 99.3598 12.9004H99.3632ZM63.1345 11.2237C63.0803 11.2237 63.0227 11.2136 62.9719 11.19C62.7958 11.1158 62.728 10.937 62.8161 10.7919C63.043 10.4276 63.2734 10.07 63.5071 9.72588C63.6019 9.5842 63.8187 9.53359 63.9914 9.61118C64.1642 9.68878 64.2251 9.87094 64.1303 10.0126C63.9034 10.3534 63.673 10.7076 63.4495 11.0652C63.3851 11.1664 63.2598 11.2237 63.1311 11.2237H63.1345ZM97.8152 10.8661C97.7001 10.8661 97.5883 10.8189 97.5172 10.7346C97.2496 10.404 96.9719 10.0734 96.6975 9.75287C96.5823 9.6213 96.6196 9.43576 96.7788 9.3413C96.938 9.24684 97.1615 9.27721 97.2767 9.40877C97.5578 9.73263 97.8389 10.0666 98.1099 10.404C98.2183 10.5389 98.1743 10.7211 98.0117 10.8122C97.9507 10.8459 97.883 10.8628 97.8118 10.8628L97.8152 10.8661ZM64.5469 9.1254C64.4826 9.1254 64.4216 9.1119 64.364 9.08154C64.1947 8.9972 64.1405 8.81503 64.2421 8.67672C64.4995 8.32587 64.7603 7.98177 65.0245 7.65117C65.1329 7.51623 65.3531 7.47575 65.519 7.56683C65.685 7.65792 65.729 7.84009 65.6206 7.97503C65.3632 8.29888 65.1058 8.63624 64.8551 8.98034C64.7874 9.07142 64.6689 9.12202 64.5503 9.12202L64.5469 9.1254ZM96.1217 8.91287C96.0133 8.91287 95.9083 8.87238 95.8372 8.79817C95.5425 8.48106 95.241 8.16732 94.9396 7.86707C94.8143 7.74225 94.8346 7.55671 94.987 7.45213C95.1394 7.34755 95.363 7.36779 95.4883 7.49261C95.7931 7.7996 96.1014 8.11672 96.3994 8.44057C96.518 8.56877 96.4909 8.75431 96.3317 8.85552C96.2673 8.896 96.1894 8.91624 96.1149 8.91624L96.1217 8.91287ZM66.1456 7.12153C66.0745 7.12153 66 7.10466 65.9356 7.06418C65.7764 6.96972 65.7392 6.78417 65.8543 6.65261C66.1456 6.31863 66.4437 5.99477 66.7452 5.68441C66.8671 5.55621 67.094 5.53597 67.2465 5.63718C67.3989 5.73838 67.426 5.92393 67.3006 6.05212C67.0094 6.35236 66.7181 6.66948 66.4302 6.99671C66.359 7.07767 66.2506 7.11815 66.1389 7.11815L66.1456 7.12153ZM94.2689 7.0608C94.1707 7.0608 94.0725 7.02707 94.0013 6.96297C93.6796 6.66273 93.3476 6.36923 93.0225 6.0926C92.8836 5.97453 92.887 5.78899 93.0292 5.67429C93.1715 5.55959 93.3984 5.56296 93.5339 5.68103C93.8692 5.96441 94.2046 6.26465 94.5331 6.57164C94.6652 6.69309 94.6517 6.87863 94.5026 6.98996C94.4349 7.04056 94.3502 7.06418 94.2655 7.06418L94.2689 7.0608ZM92.2434 5.33694C92.1554 5.33694 92.0673 5.30995 91.9996 5.25597C91.6473 4.98272 91.2849 4.71621 90.9292 4.46657C90.7802 4.36199 90.7599 4.17645 90.8886 4.05163C91.0173 3.9268 91.2408 3.91331 91.3933 4.01789C91.7591 4.27428 92.1283 4.54753 92.4907 4.82753C92.6329 4.93886 92.6431 5.1244 92.5076 5.24585C92.4365 5.30657 92.3416 5.34031 92.2468 5.34031L92.2434 5.33694ZM67.9645 5.24922C67.8798 5.24922 67.7952 5.22561 67.7274 5.17501C67.5818 5.06705 67.5682 4.87814 67.7003 4.75669C68.0323 4.4497 68.3778 4.15283 68.7199 3.8762C68.8621 3.7615 69.0857 3.76488 69.2245 3.87958C69.3634 3.99428 69.36 4.18319 69.2211 4.29789C68.8892 4.56777 68.5573 4.85452 68.2355 5.15139C68.1644 5.21549 68.0661 5.24922 67.9679 5.24922H67.9645ZM90.0249 3.78512C89.9503 3.78512 89.8758 3.76488 89.8115 3.72439C89.4253 3.48487 89.0324 3.25547 88.6429 3.04294C88.4769 2.95186 88.4329 2.76969 88.5413 2.63475C88.6497 2.49981 88.8732 2.4627 89.0358 2.55041C89.4389 2.76969 89.842 3.00583 90.2382 3.25547C90.3941 3.35331 90.4279 3.53885 90.3094 3.67042C90.2382 3.74801 90.1332 3.78849 90.0249 3.78849V3.78512ZM70.0374 3.57259C69.9358 3.57259 69.8342 3.53885 69.7665 3.46801C69.6378 3.34319 69.6581 3.15764 69.8071 3.05306C70.1899 2.78656 70.5794 2.53017 70.9723 2.29739C71.1315 2.20294 71.355 2.2333 71.4702 2.36487C71.5854 2.49643 71.5481 2.68198 71.3889 2.77643C71.0129 2.99909 70.637 3.24198 70.2712 3.50174C70.2034 3.54897 70.1221 3.57259 70.0408 3.57259H70.0374ZM87.5997 2.46607C87.5387 2.46607 87.4777 2.45258 87.4235 2.42896C87.0069 2.2333 86.5802 2.05113 86.1601 1.88583C85.9806 1.81498 85.9061 1.63956 85.9908 1.4945C86.0755 1.34606 86.2889 1.28534 86.465 1.35281C86.9019 1.52486 87.3456 1.71378 87.7758 1.91619C87.9486 1.99715 88.0095 2.17595 87.9113 2.31764C87.8469 2.41209 87.725 2.46607 87.5997 2.46607ZM72.3915 2.17595C72.2696 2.17595 72.151 2.12535 72.0833 2.03089C71.9816 1.8892 72.0392 1.7104 72.2086 1.62606C72.6388 1.41691 73.0825 1.22462 73.5228 1.05594C73.7023 0.98847 73.9157 1.05257 73.997 1.201C74.0783 1.34944 74.0038 1.52486 73.8242 1.59233C73.4042 1.75426 72.9809 1.93643 72.571 2.13547C72.5134 2.16245 72.4525 2.17595 72.3881 2.17595H72.3915ZM84.9747 1.44727C84.934 1.44727 84.89 1.44052 84.8493 1.42703C84.4022 1.28871 83.9484 1.16727 83.4979 1.06269C83.3082 1.01883 83.1964 0.856903 83.2506 0.698347C83.3048 0.539792 83.5013 0.448707 83.6909 0.492563C84.1617 0.600515 84.6359 0.728709 85.1 0.87377C85.2863 0.93112 85.3777 1.0998 85.31 1.25498C85.2558 1.37305 85.1203 1.44727 84.9747 1.44727ZM75.0199 1.17401C74.8709 1.17401 74.732 1.09642 74.6812 0.974976C74.6168 0.819794 74.7184 0.654491 74.9047 0.600515C75.3755 0.468948 75.8565 0.357622 76.3375 0.26991C76.5306 0.236175 76.7202 0.334007 76.7643 0.495936C76.8083 0.654491 76.6864 0.813047 76.4933 0.846782C76.0394 0.927746 75.5822 1.0357 75.1384 1.16052C75.1012 1.17064 75.0605 1.17739 75.0233 1.17739L75.0199 1.17401ZM82.1803 0.8063C82.16 0.8063 82.1362 0.8063 82.1159 0.802926C81.6519 0.732082 81.1811 0.68148 80.7137 0.647744C80.5172 0.63425 80.3716 0.489189 80.3885 0.32726C80.4054 0.165331 80.5782 0.0438845 80.7746 0.0573786C81.2658 0.0911138 81.7603 0.148464 82.2446 0.222681C82.4377 0.253043 82.5664 0.404851 82.5325 0.56678C82.5021 0.708468 82.3496 0.809673 82.1803 0.809673V0.8063ZM77.8448 0.661238C77.6652 0.661238 77.5094 0.549912 77.4891 0.398104C77.4688 0.236175 77.6111 0.0911138 77.8075 0.0742462C77.9599 0.0607521 78.109 0.0506315 78.2614 0.040511C78.6069 0.0202699 78.9524 0.0101493 79.2945 0.00677578C79.4943 0.00340226 79.6535 0.138343 79.6535 0.300272C79.6535 0.462201 79.4943 0.597142 79.2978 0.597142C78.9727 0.597142 78.6407 0.610636 78.3122 0.627503C78.1699 0.63425 78.0277 0.647744 77.8854 0.657865C77.8719 0.657865 77.8617 0.657865 77.8481 0.657865L77.8448 0.661238Z" fill="#C5C8CD"/>
<path d="M102.899 18.7702C102.754 18.7702 102.618 18.6994 102.564 18.5813C102.564 18.5813 102.473 18.3857 102.3 18.0449C102.222 17.8931 102.31 17.7211 102.49 17.657C102.673 17.5929 102.883 17.6637 102.957 17.8155C103.137 18.1664 103.228 18.362 103.231 18.3722C103.303 18.524 103.208 18.696 103.025 18.7534C102.984 18.7669 102.94 18.7736 102.896 18.7736L102.899 18.7702Z" fill="#C5C8CD"/>
<g clip-path="url(#clip1_9190_35834)">
<path d="M88.2029 79.4935V66.5291H79.4336V73.1615L88.2029 79.4935Z" fill="#133B53"/>
<path d="M88.2029 79.4935V66.5291H79.4336V73.1615L88.2029 79.4935Z" fill="#133B53"/>
<path d="M79.4336 72.7432V73.1615L88.2029 79.4936V72.7432H79.4336Z" fill="#133B53"/>
<path d="M81.2657 67.6154H80.5815V69.1976H81.2657V67.6154Z" fill="white"/>
<path d="M83.193 67.6154H82.5088V69.1976H83.193V67.6154Z" fill="white"/>
<path d="M85.1236 67.6154H84.4395V69.1976H85.1236V67.6154Z" fill="white"/>
<path d="M87.0514 67.6154H86.3672V69.1976H87.0514V67.6154Z" fill="white"/>
<path d="M117.291 127.9H100.86V91.4662L117.291 101.762V127.9Z" fill="#B6E2FF"/>
<path opacity="0.8" d="M117.291 107.558L100.86 95.2344V91.4662L117.291 101.762V107.558Z" fill="#B8D0E7"/>
<path d="M100.86 127.532H10.1362V88.7572L54.7413 56.3344L100.86 88.7572V127.532Z" fill="#E9F6FF"/>
<path d="M92.0337 100.534H18.4146V101.988H92.0337V100.534Z" fill="#B8D0E7"/>
<path opacity="0.8" d="M54.9514 55.771L10.0991 89.125V93.6151L54.2333 61.0371L100.86 95.2344V90.3192L54.9514 55.771Z" fill="#B8D0E7"/>
<path d="M54.9515 55.3257L6.51221 89.9312L9.00852 92.8864L54.9515 58.7228L117.322 105.119L119.649 102.035L54.9515 55.3257Z" fill="#008CE7"/>
<path d="M107.177 97.6633H100.86V98.0142H107.177V97.6633Z" fill="#008CE7"/>
<path d="M114.114 102.676H100.86V103.027H114.114V102.676Z" fill="#008CE7"/>
<path d="M117.288 107.686H100.86V108.037H117.288V107.686Z" fill="#008CE7"/>
<path d="M117.288 112.699H100.86V113.05H117.288V112.699Z" fill="#008CE7"/>
<path d="M117.288 117.709H100.86V118.06H117.288V117.709Z" fill="#008CE7"/>
<path d="M117.288 122.722H100.86V123.073H117.288V122.722Z" fill="#008CE7"/>
<path d="M27.2787 100.393H19.2207V100.534H27.2787V100.393Z" fill="#F43D4F"/>
<path d="M91.2748 100.393H83.2168V100.534H91.2748V100.393Z" fill="#F43D4F"/>
<path d="M83.2168 125.549H59.0361V127.758H83.2168V125.549Z" fill="#7BBFBA"/>
<path d="M83.2168 125.549H59.0361V127.758H83.2168V125.549Z" fill="#D4E6F0"/>
<path d="M81.0828 123.339H61.1699V125.549H81.0828V123.339Z" fill="#D4E6F0"/>
<path d="M81.0828 125.181H61.1699V125.552H81.0828V125.181Z" fill="#B8D0E7"/>
<path d="M50.9819 106.428H27.2788V127.762H50.9819V106.428Z" fill="#D4E6F0"/>
<g opacity="0.8">
<path d="M50.9819 107.382H27.2788V107.733H50.9819V107.382Z" fill="#B8D0E7"/>
<path d="M50.9819 108.648H27.2788V108.998H50.9819V108.648Z" fill="#B8D0E7"/>
<path d="M50.9819 109.913H27.2788V110.263H50.9819V109.913Z" fill="#B8D0E7"/>
<path d="M50.9819 111.178H27.2788V111.529H50.9819V111.178Z" fill="#B8D0E7"/>
<path d="M50.9819 112.439H27.2788V112.79H50.9819V112.439Z" fill="#B8D0E7"/>
<path d="M50.9819 113.704H27.2788V114.055H50.9819V113.704Z" fill="#B8D0E7"/>
<path d="M50.9819 114.969H27.2788V115.32H50.9819V114.969Z" fill="#B8D0E7"/>
<path d="M50.9819 116.235H27.2788V116.585H50.9819V116.235Z" fill="#B8D0E7"/>
<path d="M50.9819 117.5H27.2788V117.85H50.9819V117.5Z" fill="#B8D0E7"/>
<path d="M50.9819 118.765H27.2788V119.116H50.9819V118.765Z" fill="#B8D0E7"/>
<path d="M50.9819 120.026H27.2788V120.377H50.9819V120.026Z" fill="#B8D0E7"/>
<path d="M50.9819 121.291H27.2788V121.642H50.9819V121.291Z" fill="#B8D0E7"/>
<path d="M50.9819 122.557H27.2788V122.907H50.9819V122.557Z" fill="#B8D0E7"/>
<path d="M50.9819 123.822H27.2788V124.172H50.9819V123.822Z" fill="#B8D0E7"/>
<path d="M50.9819 125.087H27.2788V125.438H50.9819V125.087Z" fill="#B8D0E7"/>
<path d="M50.9819 126.352H27.2788V126.703H50.9819V126.352Z" fill="#B8D0E7"/>
</g>
<path d="M50.9819 105.49H27.2788V106.428H50.9819V105.49Z" fill="#008CE7"/>
<path d="M10.6783 127.812H0.5C0.642259 127.283 1.01146 126.871 1.43485 126.682C1.88872 126.48 2.3934 126.51 2.86082 126.662C2.77615 126.635 2.66098 126.46 2.60002 126.385C2.45776 126.207 2.33921 126.021 2.30872 125.775C2.27147 125.502 2.3426 125.222 2.49163 125.006C2.74228 124.641 3.17921 124.513 3.56873 124.56C3.58906 124.56 3.60938 124.567 3.62631 124.571C3.70422 124.584 3.77874 124.604 3.84987 124.638C4.16148 124.776 4.43922 125.023 4.67632 125.289C4.72036 125.34 4.76439 125.39 4.80503 125.448C4.80503 125.448 4.14454 124.82 3.98874 124.345C3.41293 122.992 4.6289 121.025 6.13956 121.582C6.74586 121.875 7.24376 122.472 7.56893 123.174C6.35972 121.109 8.3649 119.858 9.0762 121.713C8.63587 120.182 9.29297 118.579 10.6207 119.48C10.641 119.487 10.658 119.497 10.6749 119.507V127.823L10.6783 127.812Z" fill="#23590D"/>
<path d="M10.6783 127.813H4.68311C4.76778 127.502 4.98456 127.256 5.23521 127.148C5.50279 127.03 5.80086 127.047 6.07521 127.138C5.93634 126.827 6.12602 126.409 6.3936 126.288C6.66119 126.166 6.96264 126.267 7.22006 126.419C6.99651 126.301 6.83054 126.048 6.73909 125.768C6.40038 124.972 7.11506 123.812 8.00587 124.139C8.36491 124.311 8.6562 124.662 8.84927 125.077C8.13797 123.862 9.31669 123.123 9.73669 124.216C9.33024 123.019 10.1161 122.317 10.6783 122.587V127.813Z" fill="#55BC2A"/>
<path d="M117.288 108.691H107.415V118.643H117.288V108.691Z" fill="white"/>
<path d="M117.291 109.528H108.268V117.803H117.291V109.528Z" fill="#B6E2FF"/>
<path opacity="0.8" d="M107.415 108.691H106.632V119.463H117.292V118.643H107.415V108.691Z" fill="#B8D0E7"/>
<path d="M55.0089 75.5027H41.4604V92.8561H55.0089V75.5027Z" fill="white"/>
<path d="M47.7268 76.2853H42.3413V91.9351H47.7268V76.2853Z" fill="#B6E2FF"/>
<path d="M54.0945 76.2853H48.709V91.9351H54.0945V76.2853Z" fill="#B6E2FF"/>
<path d="M68.4796 75.5027H54.9312V92.8561H68.4796V75.5027Z" fill="white"/>
<path d="M61.2005 76.2853H55.8149V91.9351H61.2005V76.2853Z" fill="#B6E2FF"/>
<path d="M67.5686 76.2853H62.1831V91.9351H67.5686V76.2853Z" fill="#B6E2FF"/>
<path d="M68.1508 79.4194H41.9751V79.8478H68.1508V79.4194Z" fill="white"/>
<path d="M76.307 105.119H65.9492V123.339H76.307V105.119Z" fill="white"/>
<path opacity="0.8" d="M65.4513 123.343H65.9458V104.687H65.4513V123.343Z" fill="#B8D0E7"/>
<path opacity="0.8" d="M76.3038 123.343H76.7983V104.687H76.3038V123.343Z" fill="#B8D0E7"/>
<path d="M74.6981 117.857H67.5547V122.034H74.6981V117.857Z" fill="#B6E2FF"/>
<path d="M74.6981 117.007V107.622H73.5093C72.9673 106.897 72.1036 106.424 71.1281 106.424C70.1526 106.424 69.2889 106.897 68.747 107.622H67.5547V117.007H74.6981Z" fill="#B6E2FF"/>
<path d="M77.9433 104.103H64.3135V105.119H77.9433V104.103Z" fill="#133B53"/>
<path d="M23.1905 90.9399H20.2505V94.9376H23.1905V90.9399Z" fill="#008CE7"/>
<path d="M39.7974 90.9399H36.8574V94.9376H39.7974V90.9399Z" fill="#008CE7"/>
<path d="M73.0084 90.9399H70.0684V94.9376H73.0084V90.9399Z" fill="#008CE7"/>
<path d="M56.401 90.9399H53.4609V94.9376H56.401V90.9399Z" fill="#008CE7"/>
<path d="M89.6153 90.9399H86.6753V94.9376H89.6153V90.9399Z" fill="#008CE7"/>
<path d="M23.1905 90.9399H20.2505V91.4089H23.1905V90.9399Z" fill="#008CE7"/>
<path d="M39.7974 90.9399H36.8574V91.4089H39.7974V90.9399Z" fill="#008CE7"/>
<path d="M73.0084 90.9399H70.0684V91.4089H73.0084V90.9399Z" fill="#008CE7"/>
<path d="M56.401 90.9399H53.4609V91.4089H56.401V90.9399Z" fill="#008CE7"/>
<path d="M89.6153 90.9399H86.6753V91.4089H89.6153V90.9399Z" fill="#008CE7"/>
<path d="M90.0725 90.471H19.6982V90.9399H90.0725V90.471Z" fill="#008CE7"/>
<path d="M21.9271 100.534V103.594L21.5376 127.762H27.333V103.361V100.534H21.9271Z" fill="white"/>
<path opacity="0.8" d="M21.9268 100.534V100.639V101.482H27.3326V100.632V100.534H21.9268Z" fill="#B8D0E7"/>
<path d="M50.9545 100.534V103.594L50.5649 127.762H56.3603V103.361V100.534H50.9545Z" fill="white"/>
<path opacity="0.8" d="M50.9546 100.534V100.639V101.482H56.3604V100.632V100.534H50.9546Z" fill="#B8D0E7"/>
<path d="M84.1654 100.534V103.594L83.7759 127.762H89.5712V103.361V100.534H84.1654Z" fill="white"/>
<path opacity="0.8" d="M84.1655 100.534V100.639V101.482H89.5714V100.632V100.534H84.1655Z" fill="#B8D0E7"/>
<path d="M92.7586 100.534H17.7338L17.4053 94.5631L92.7586 94.7048V100.534Z" fill="white"/>
<path d="M54.3416 72.3687C56.1 72.3687 57.5255 70.949 57.5255 69.1976C57.5255 67.4462 56.1 66.0265 54.3416 66.0265C52.5832 66.0265 51.1577 67.4462 51.1577 69.1976C51.1577 70.949 52.5832 72.3687 54.3416 72.3687Z" fill="white"/>
<path d="M54.3416 71.8323C55.8026 71.8323 56.987 70.6527 56.987 69.1976C56.987 67.7425 55.8026 66.5629 54.3416 66.5629C52.8807 66.5629 51.6963 67.7425 51.6963 69.1976C51.6963 70.6527 52.8807 71.8323 54.3416 71.8323Z" fill="#B6E2FF"/>
</g>
</g>
<defs>
<linearGradient id="paint0_linear_9190_35834" x1="102.96" y1="22.4339" x2="103.256" y2="30.4798" gradientUnits="userSpaceOnUse">
<stop stop-color="#FF8069"/>
<stop offset="1" stop-color="#FF8069" stop-opacity="0"/>
</linearGradient>
<linearGradient id="paint1_linear_9190_35834" x1="53.339" y1="36.94" x2="55.7888" y2="52.5861" gradientUnits="userSpaceOnUse">
<stop stop-color="#A9C3D8"/>
<stop offset="0.789373" stop-color="#A9C3D8" stop-opacity="0"/>
</linearGradient>
<clipPath id="clip0_9190_35834">
<rect width="123" height="129" fill="white" transform="translate(0.5)"/>
</clipPath>
<clipPath id="clip1_9190_35834">
<rect width="119.149" height="72.5745" fill="white" transform="translate(0.5 55.3257)"/>
</clipPath>
</defs>
</svg>