<svg xmlns="http://www.w3.org/2000/svg" width="120" height="77" viewBox="0 0 120 77" fill="none">
<g clip-path="url(#clip0_8596_33223)">
<path d="M73.5059 11.5397L55.4442 1.97559L4.52881 30.0937V64.5939H73.5059V11.5397Z" fill="white"/>
<path d="M47.48 20.9678V64.5412H47.7672H55.4442V21.2139V20.9678H47.48Z" fill="white"/>
<path d="M54.8726 21.5605H48.042V64.0112H54.8726V21.5605Z" fill="#B6E2FF"/>
<path d="M26.4114 41.4399H20.1128V55.4867H26.4114V41.4399Z" fill="white"/>
<path d="M25.684 42.1689H20.8418V54.7593H25.684V42.1689Z" fill="#B6E2FF"/>
<path opacity="0.2" d="M25.684 42.1689H20.8418V43.9385H25.684V42.1689Z" fill="#222F2F"/>
<path opacity="0.2" d="M25.684 42.1689V43.4079L20.8418 53.5067V52.0531L25.5829 42.1689H25.684Z" fill="white"/>
<path opacity="0.2" d="M25.6836 50.3574V51.8111L24.2668 54.7621H23.5708L25.6836 50.3574Z" fill="white"/>
<path d="M16.9915 41.4399H10.6929V55.4867H16.9915V41.4399Z" fill="white"/>
<path d="M16.2641 42.1689H11.4219V54.7593H16.2641V42.1689Z" fill="#B6E2FF"/>
<path opacity="0.2" d="M16.2641 42.1689H11.4219V43.9385H16.2641V42.1689Z" fill="#222F2F"/>
<path opacity="0.2" d="M16.2641 42.1689V43.4079L11.4219 53.5067V52.0531L16.1616 42.1689H16.2641Z" fill="white"/>
<path opacity="0.2" d="M16.2636 50.3574V51.8111L14.8469 54.7621H14.1509L16.2636 50.3574Z" fill="white"/>
<path opacity="0.2" d="M55.4428 21.7588V23.7512L47.48 40.3497V38.3627L55.4428 21.7588Z" fill="white"/>
<path opacity="0.2" d="M55.4428 38.2974V40.2898L47.48 56.8828V54.9013L55.4428 38.2974Z" fill="white"/>
<path opacity="0.2" d="M55.4442 1.97559L4.52881 30.0937V39.5649L55.4442 11.4481L73.5059 21.0109V11.5397L55.4442 1.97559Z" fill="#222F2F"/>
<path d="M2.38815 33.2607L0.70752 30.2167L55.4259 -0.000488281L74.319 10.0026L72.6917 13.0754L55.4601 3.95153L2.38815 33.2607Z" fill="#166296"/>
<path d="M55.4428 47.0381H47.48V47.6111H55.4428V47.0381Z" fill="white"/>
<path opacity="0.2" d="M55.4417 52.5435V54.436L50.6377 63.9715H49.6846L55.4417 52.5435Z" fill="white"/>
<path d="M80.8258 7.44678L61.5225 18.2376V64.5938H115.478V26.4452L80.8258 7.44678Z" fill="#E9F6FF"/>
<path d="M115.477 26.4477V45.5159H61.5215V18.2374L72.3 12.2123L73.6059 11.482L80.8276 7.44385L93.0556 14.15L93.8118 14.5671L105.657 21.0585L106.412 21.4756L111.324 24.1681L112.075 24.5852L115.477 26.4477Z" fill="#B6E2FF"/>
<path opacity="0.2" d="M73.6059 11.4795L61.5215 36.6767V34.6952L72.3 12.2097L73.6059 11.4795Z" fill="white"/>
<path opacity="0.1" d="M57.6951 18.3849L36.562 64.5921H61.777L61.5226 18.2358L57.6951 18.3849Z" fill="#222F2F"/>
<path opacity="0.2" d="M93.8119 14.567L78.9651 45.5158H78.0161L93.0557 14.1499L93.8119 14.567Z" fill="white"/>
<path opacity="0.2" d="M106.412 21.4757L94.8783 45.516H93.9307L105.657 21.0586L106.412 21.4757Z" fill="white"/>
<path opacity="0.2" d="M112.074 24.5855L102.036 45.5162H101.088L111.323 24.1685L112.074 24.5855Z" fill="white"/>
<path opacity="0.2" d="M80.8256 7.44678L74.3232 11.0815L110.828 31.096V45.5174H115.478V26.4452L80.8256 7.44678Z" fill="#222F2F"/>
<path d="M75.6218 9.43896H75.0488V33.2865H75.6218V9.43896Z" fill="white"/>
<path d="M80.8272 10.0926L114.905 28.7751V44.9442H62.0954V20.5648L80.8272 10.0926ZM80.8244 9.43896L61.5225 20.2298V45.5186H115.478V28.4374L80.8244 9.43896Z" fill="white"/>
<path d="M117.622 29.6047L80.834 9.43571L59.3905 21.4217L57.6948 18.3872L80.8162 5.46045L119.294 26.5552L117.622 29.6047Z" fill="#166296"/>
<path d="M115.477 33.2598H73.3066V45.5179H115.477V33.2598Z" fill="white"/>
<path d="M115.477 33.2598H73.3066V35.0183H115.477V33.2598Z" fill="white"/>
<path d="M75.3354 27.1904H61.5225V27.7634H75.3354V27.1904Z" fill="white"/>
<path d="M61.5225 45.5161H115.478V64.5925H61.7768L61.5225 45.5161Z" fill="#46B6FF"/>
<path d="M109.783 47.4209H98.6953V64.5923H109.783V47.4209Z" fill="#ECEBE7"/>
<path d="M108.742 48.4634H99.7354V64.5942H108.742V48.4634Z" fill="#166296"/>
<path d="M107.627 55.0728H104.645V58.8867H107.627V55.0728Z" fill="#ECF7ED"/>
<path d="M103.886 50.1743H100.904V53.9882H103.886V50.1743Z" fill="#ECF7ED"/>
<path d="M103.886 55.0728H100.904V58.8867H103.886V55.0728Z" fill="#ECF7ED"/>
<path d="M107.627 50.1743H104.645V53.9882H107.627V50.1743Z" fill="#ECF7ED"/>
<path opacity="0.2" d="M115.478 45.5161H61.5225V49.2097H115.478V45.5161Z" fill="#222F2F"/>
<path d="M95.024 50.9536H78.6689V56.0639H95.024V50.9536Z" fill="#ECEBE7"/>
<path d="M94.2774 51.7007H79.417V55.3122H94.2774V51.7007Z" fill="#B6E2FF"/>
<path d="M94.2753 51.7002H86.8472V55.3117H94.2753V51.7002Z" fill="#A6BED5"/>
<path opacity="0.2" d="M82.8202 51.7002L81.0862 55.3103H80.1372L81.8657 51.7002H82.8202Z" fill="white"/>
<path opacity="0.2" d="M92.5976 51.7002L90.865 55.3103H89.916L91.65 51.7002H92.5976Z" fill="white"/>
<path d="M115.27 32.6028C115.273 32.5823 115.275 32.5618 115.275 32.5399C115.275 32.2664 115.018 32.0435 114.7 32.0435C114.489 32.0435 114.306 32.1406 114.206 32.2855C113.949 32.023 113.565 31.8562 113.135 31.8562C112.46 31.8562 111.896 32.2678 111.764 32.8175C111.751 32.812 111.738 32.8066 111.725 32.8011C111.731 32.7683 111.734 32.7368 111.734 32.7026C111.734 32.3033 111.359 31.9806 110.897 31.9806C110.604 31.9806 110.347 32.1105 110.198 32.3061C110.171 32.2896 110.142 32.2746 110.113 32.2596C110.105 32.2555 110.097 32.2514 110.089 32.2473C110.067 32.2363 110.045 32.2267 110.023 32.2172C110.013 32.2131 110.005 32.209 109.996 32.2049C109.967 32.1926 109.937 32.1816 109.907 32.1707C109.9 32.1679 109.892 32.1666 109.885 32.1638C109.862 32.1556 109.838 32.1488 109.815 32.142C109.801 32.1379 109.788 32.1351 109.774 32.131C109.755 32.1269 109.737 32.1214 109.718 32.1173C109.703 32.1146 109.689 32.1105 109.674 32.1078C109.648 32.1023 109.621 32.0982 109.594 32.0941C109.511 32.0818 109.427 32.075 109.341 32.075C108.954 32.075 108.602 32.2008 108.334 32.4059C108.088 32.1461 107.715 31.9806 107.296 31.9806C106.77 31.9806 106.316 32.2432 106.096 32.6233C105.895 32.4565 105.621 32.3539 105.32 32.3539C105.085 32.3539 104.868 32.4182 104.687 32.5262C104.679 32.2582 104.426 32.0421 104.113 32.0421C103.902 32.0421 103.719 32.1392 103.619 32.2842C103.362 32.0216 102.978 31.8548 102.548 31.8548C101.873 31.8548 101.309 32.2664 101.177 32.8161C101.164 32.8107 101.151 32.8052 101.138 32.7997C101.144 32.7669 101.147 32.7354 101.147 32.7013C101.147 32.302 100.772 31.9792 100.31 31.9792C100.017 31.9792 99.76 32.1091 99.6109 32.3047C99.5836 32.2883 99.5549 32.2732 99.5262 32.2582C99.518 32.2541 99.5097 32.25 99.5015 32.2459C99.4797 32.2349 99.4578 32.2254 99.4359 32.2158C99.4263 32.2117 99.4181 32.2076 99.4086 32.2035C99.3798 32.1912 99.3497 32.1802 99.3197 32.1693C99.3128 32.1666 99.3046 32.1652 99.2978 32.1625C99.2745 32.1543 99.2513 32.1474 99.228 32.1406C99.2144 32.1365 99.2007 32.1338 99.187 32.1297C99.1679 32.1255 99.1501 32.1201 99.131 32.116C99.1159 32.1132 99.1022 32.1091 99.0872 32.1064C99.0612 32.1009 99.0339 32.0968 99.0065 32.0927C98.9245 32.0804 98.8397 32.0736 98.7535 32.0736C98.3679 32.0736 98.0151 32.1994 97.7471 32.4045C97.5009 32.1447 97.1276 31.9792 96.7091 31.9792C96.2128 31.9792 95.7834 32.2131 95.5523 32.559C95.5523 32.5522 95.5536 32.544 95.5536 32.5372C95.5536 32.2637 95.2965 32.0408 94.9779 32.0408C94.7673 32.0408 94.5841 32.1379 94.4843 32.2828C94.2272 32.0203 93.8429 31.8534 93.4135 31.8534C92.738 31.8534 92.1746 32.265 92.0419 32.8148C92.0296 32.8093 92.016 32.8038 92.0036 32.7983C92.0091 32.7655 92.0118 32.7341 92.0118 32.6999C92.0118 32.3006 91.6372 31.9779 91.175 31.9779C90.8823 31.9779 90.6252 32.1078 90.4762 32.3033C90.4488 32.2869 90.4201 32.2719 90.3914 32.2568C90.3832 32.2527 90.375 32.2486 90.3668 32.2445C90.3449 32.2336 90.323 32.224 90.3011 32.2144C90.2916 32.2103 90.2833 32.2062 90.2738 32.2021C90.2451 32.1898 90.215 32.1789 90.1849 32.1679C90.1781 32.1652 90.1698 32.1638 90.163 32.1611C90.1398 32.1529 90.1165 32.1461 90.0933 32.1392C90.0796 32.1351 90.0659 32.1324 90.0522 32.1283C90.0331 32.1242 90.0153 32.1187 89.9962 32.1146C89.9811 32.1119 89.9675 32.1078 89.9524 32.105C89.9264 32.0996 89.8991 32.0955 89.8717 32.0914C89.7897 32.0791 89.7049 32.0722 89.6188 32.0722C89.2318 32.0722 88.8803 32.198 88.6123 32.4031C88.3661 32.1433 87.9928 31.9779 87.5744 31.9779C87.0479 31.9779 86.5939 32.2404 86.3737 32.6206C86.1727 32.4537 85.8992 32.3512 85.5984 32.3512C85.3632 32.3512 85.1457 32.4155 84.9652 32.5235C84.957 32.2555 84.704 32.0394 84.3909 32.0394C84.1803 32.0394 83.9971 32.1365 83.8972 32.2814C83.6401 32.0189 83.2559 31.8521 82.8265 31.8521C82.1509 31.8521 81.5875 32.2637 81.4549 32.8134C81.4426 32.8079 81.4289 32.8025 81.4166 32.797C81.4221 32.7642 81.4248 32.7327 81.4248 32.6985C81.4248 32.2992 81.0501 31.9765 80.5879 31.9765C80.2953 31.9765 80.0382 32.1064 79.8891 32.302C79.8618 32.2855 79.8331 32.2705 79.8043 32.2555C79.7961 32.2514 79.7879 32.2473 79.7797 32.2432C79.7579 32.2322 79.736 32.2226 79.7141 32.2131C79.7045 32.209 79.6963 32.2049 79.6867 32.2008C79.658 32.1885 79.6279 32.1775 79.5979 32.1666C79.591 32.1638 79.5828 32.1625 79.576 32.1597C79.5527 32.1515 79.5295 32.1447 79.5062 32.1379C79.4926 32.1338 79.4789 32.131 79.4652 32.1269C79.4461 32.1228 79.4283 32.1173 79.4092 32.1132C79.3941 32.1105 79.3804 32.1064 79.3654 32.1037C79.3394 32.0982 79.3121 32.0941 79.2847 32.09C79.2027 32.0777 79.1179 32.0708 79.0317 32.0708C78.6447 32.0708 78.2933 32.1967 78.0253 32.4018C77.7791 32.142 77.4058 31.9765 76.9873 31.9765C76.4609 31.9765 76.0069 32.239 75.7867 32.6192C75.5857 32.4524 75.3122 32.3498 75.0113 32.3498C74.6052 32.3498 74.251 32.5358 74.0541 32.8148C74.0445 32.8148 74.035 32.8148 74.0254 32.8148C73.5591 32.8148 73.1816 33.1416 73.1816 33.5436C73.1816 33.9457 73.5591 34.2725 74.0254 34.2725C74.1854 34.2725 74.3358 34.2328 74.463 34.1658C74.6257 34.2451 74.8117 34.2903 75.0113 34.2903C75.0441 34.2903 75.077 34.2889 75.1084 34.2862C75.2534 34.5282 75.546 34.695 75.8838 34.695C76.2216 34.695 76.5361 34.5159 76.6742 34.2588C76.774 34.2793 76.8793 34.2903 76.9873 34.2903C77.2731 34.2903 77.5384 34.2123 77.7559 34.081C78.0239 34.4448 78.4957 34.6855 79.0317 34.6855C79.1151 34.6855 79.1958 34.6786 79.2751 34.6677C79.2751 34.6677 79.2861 34.6677 79.2915 34.6663C79.3107 34.6636 79.3298 34.6595 79.349 34.6568C79.3709 34.6527 79.3927 34.6485 79.4132 34.6431C79.4324 34.639 79.4515 34.6349 79.4693 34.6294C79.4926 34.6239 79.5158 34.6171 79.5377 34.6089C79.5527 34.6048 79.5691 34.5993 79.5842 34.5952C79.6197 34.5829 79.6553 34.5692 79.6895 34.5556C79.7032 34.5501 79.7155 34.5433 79.7291 34.5378C79.7524 34.5268 79.7756 34.5159 79.7989 34.505C79.8126 34.4981 79.8249 34.4913 79.8372 34.4845C79.8604 34.4721 79.8837 34.4585 79.9055 34.4448C79.9165 34.438 79.9274 34.4325 79.937 34.4257C79.9698 34.4051 80.0013 34.3833 80.0314 34.36C80.2447 34.5761 80.5633 34.7142 80.9175 34.7142C81.4221 34.7142 81.8515 34.4366 82.0128 34.0482C82.2426 34.1904 82.5229 34.2739 82.8265 34.2739C83.0726 34.2739 83.3024 34.2192 83.5034 34.1234C83.6866 34.2287 83.9068 34.2916 84.1434 34.2916C84.2446 34.2916 84.3417 34.2793 84.436 34.2575C84.4921 34.2684 84.5509 34.2739 84.611 34.2739C84.771 34.2739 84.9215 34.2342 85.0486 34.1672C85.2114 34.2465 85.3973 34.2916 85.597 34.2916C85.6298 34.2916 85.6626 34.2903 85.6941 34.2875C85.839 34.5296 86.1317 34.6964 86.4695 34.6964C86.8072 34.6964 87.1217 34.5173 87.2599 34.2602C87.3597 34.2807 87.465 34.2916 87.573 34.2916C87.8588 34.2916 88.1241 34.2137 88.3415 34.0824C88.6096 34.4462 89.0813 34.6868 89.6174 34.6868C89.7008 34.6868 89.7815 34.68 89.8608 34.6691C89.8608 34.6691 89.8717 34.6691 89.8772 34.6677C89.8964 34.665 89.9155 34.6609 89.9346 34.6581C89.9565 34.654 89.9784 34.6499 89.9989 34.6444C90.0181 34.6403 90.0372 34.6362 90.055 34.6308C90.0782 34.6253 90.1015 34.6185 90.1234 34.6103C90.1384 34.6062 90.1548 34.6007 90.1699 34.5966C90.2054 34.5843 90.241 34.5706 90.2751 34.5569C90.2888 34.5515 90.3011 34.5446 90.3148 34.5392C90.3381 34.5282 90.3613 34.5173 90.3846 34.5063C90.3982 34.4995 90.4105 34.4927 90.4228 34.4858C90.4461 34.4735 90.4693 34.4598 90.4912 34.4462C90.5021 34.4393 90.5131 34.4339 90.5227 34.427C90.5555 34.4065 90.5869 34.3846 90.617 34.3614C90.8303 34.5774 91.149 34.7156 91.5031 34.7156C92.0077 34.7156 92.4371 34.438 92.5985 34.0496C92.8282 34.1918 93.1086 34.2752 93.4121 34.2752C93.4778 34.2752 93.5421 34.2711 93.6063 34.2629C93.6515 34.2698 93.698 34.2752 93.7458 34.2752C93.9058 34.2752 94.0535 34.2356 94.1807 34.1699C94.26 34.2082 94.3448 34.2369 94.435 34.2575C94.4473 34.2602 94.461 34.2629 94.4747 34.2657C94.5075 34.2725 94.5417 34.2793 94.5759 34.2834C94.6196 34.2889 94.6648 34.2916 94.7113 34.2916C94.7181 34.2916 94.7236 34.2916 94.7304 34.2916C94.7304 34.2916 94.7304 34.2916 94.7318 34.2916C94.7646 34.2916 94.7974 34.2903 94.8289 34.2875C94.9738 34.5296 95.2665 34.6964 95.6042 34.6964C95.942 34.6964 96.2565 34.5173 96.3946 34.2602C96.4944 34.2807 96.5997 34.2916 96.7078 34.2916C96.9936 34.2916 97.2589 34.2137 97.4763 34.0824C97.7443 34.4462 98.2161 34.6868 98.7522 34.6868C98.8356 34.6868 98.9163 34.68 98.9956 34.6691C98.9956 34.6691 99.0065 34.6691 99.012 34.6677C99.0311 34.665 99.0503 34.6609 99.0694 34.6581C99.0913 34.654 99.1132 34.6499 99.1337 34.6444C99.1528 34.6403 99.172 34.6362 99.1898 34.6308C99.213 34.6253 99.2362 34.6185 99.2581 34.6103C99.2732 34.6062 99.2896 34.6007 99.3046 34.5966C99.3402 34.5843 99.3757 34.5706 99.4099 34.5569C99.4236 34.5515 99.4359 34.5446 99.4496 34.5392C99.4728 34.5282 99.4961 34.5173 99.5193 34.5063C99.533 34.4995 99.5453 34.4927 99.5576 34.4858C99.5809 34.4735 99.6041 34.4598 99.626 34.4462C99.6369 34.4393 99.6479 34.4339 99.6574 34.427C99.6903 34.4065 99.7217 34.3846 99.7518 34.3614C99.9651 34.5774 100.284 34.7156 100.638 34.7156C101.143 34.7156 101.572 34.438 101.733 34.0496C101.963 34.1918 102.243 34.2752 102.547 34.2752C102.793 34.2752 103.023 34.2205 103.224 34.1248C103.407 34.2301 103.627 34.293 103.864 34.293C103.965 34.293 104.062 34.2807 104.156 34.2588C104.213 34.2698 104.271 34.2752 104.331 34.2752C104.491 34.2752 104.642 34.2356 104.769 34.1686C104.932 34.2479 105.118 34.293 105.317 34.293C105.35 34.293 105.383 34.2916 105.415 34.2889C105.559 34.5309 105.852 34.6978 106.19 34.6978C106.528 34.6978 106.842 34.5186 106.98 34.2616C107.08 34.2821 107.185 34.293 107.293 34.293C107.579 34.293 107.845 34.2151 108.062 34.0838C108.33 34.4475 108.802 34.6882 109.338 34.6882C109.421 34.6882 109.502 34.6814 109.581 34.6704C109.581 34.6704 109.592 34.6704 109.598 34.6691C109.617 34.6663 109.636 34.6622 109.655 34.6595C109.677 34.6554 109.699 34.6513 109.719 34.6458C109.738 34.6417 109.758 34.6376 109.775 34.6321C109.799 34.6267 109.822 34.6198 109.844 34.6116C109.859 34.6075 109.875 34.6021 109.89 34.598C109.926 34.5856 109.961 34.572 109.996 34.5583C110.009 34.5528 110.022 34.546 110.035 34.5405C110.058 34.5296 110.082 34.5186 110.105 34.5077C110.119 34.5009 110.131 34.494 110.143 34.4872C110.167 34.4749 110.19 34.4612 110.212 34.4475C110.223 34.4407 110.234 34.4352 110.243 34.4284C110.276 34.4079 110.307 34.386 110.337 34.3627C110.551 34.5788 110.869 34.7169 111.224 34.7169C111.728 34.7169 112.158 34.4393 112.319 34.051C112.549 34.1932 112.829 34.2766 113.133 34.2766C113.379 34.2766 113.608 34.2219 113.809 34.1262C113.993 34.2315 114.213 34.2944 114.449 34.2944C115.085 34.2944 115.6 33.8499 115.6 33.3016C115.6 33.0295 115.472 32.7819 115.266 32.6028H115.27Z" fill="#2E8337"/>
<path d="M58.915 56.061V75.5312L59.6248 75.0841V56.061H58.915Z" fill="#9BB0C9"/>
<path d="M70.0659 58.8403H69.2085V59.5473H70.0659V58.8403Z" fill="white"/>
<path d="M70.0664 58.8398H69.209V59.5468H70.0664V58.8398Z" fill="white"/>
<path d="M63.6182 58.8403H62.7607V59.5473H63.6182V58.8403Z" fill="white"/>
<path d="M63.6172 58.8403H62.7598V59.5473H63.6172V58.8403Z" fill="white"/>
<path d="M72.401 59.5464H60.1128V67.0238H72.401V59.5464Z" fill="#FF9000"/>
<path d="M61.9617 64.5435L62.2492 64.4396C62.3392 64.6925 62.5263 64.8726 62.8034 64.8726C63.0494 64.8726 63.2572 64.7271 63.2572 64.4742C63.2572 64.2803 63.1394 64.1556 62.897 64.0655L62.6129 63.9581C62.2526 63.823 62.0587 63.6221 62.0587 63.3069C62.0587 62.9085 62.3739 62.6591 62.7688 62.6591C63.1117 62.6591 63.3819 62.8635 63.5032 63.2029L63.2226 63.3207C63.1464 63.1129 62.9974 62.9501 62.7653 62.9501C62.5436 62.9501 62.3704 63.0852 62.3704 63.2895C62.3704 63.4627 62.4917 63.5805 62.7376 63.6741L63.0182 63.7814C63.3889 63.9235 63.5724 64.1348 63.5724 64.4535C63.5724 64.8934 63.226 65.1636 62.793 65.1636C62.3843 65.1636 62.0794 64.9315 61.9617 64.5435ZM66.3783 63.9131C66.3783 64.6024 65.8171 65.1636 65.1347 65.1636C64.4523 65.1636 63.8911 64.6024 63.8911 63.9131C63.8911 63.2203 64.4523 62.6591 65.1347 62.6591C65.8171 62.6591 66.3783 63.2203 66.3783 63.9131ZM66.0631 63.9131C66.0631 63.3865 65.6508 62.9535 65.1347 62.9535C64.6186 62.9535 64.2063 63.3865 64.2063 63.9131C64.2063 64.4361 64.6186 64.8691 65.1347 64.8691C65.6508 64.8691 66.0631 64.4361 66.0631 63.9131ZM66.8711 62.7007H67.1794V64.838H68.0454V65.1255H66.8711V62.7007ZM70.3983 63.9131C70.3983 64.6024 69.8648 65.1255 69.1928 65.1255H68.4272V62.7007H69.1928C69.8648 62.7007 70.3983 63.2237 70.3983 63.9131ZM70.0796 63.9131C70.0796 63.3935 69.702 62.9882 69.1859 62.9882H68.7355V64.838H69.1859C69.702 64.838 70.0796 64.4327 70.0796 63.9131Z" fill="white"/>
<path d="M73.4865 57.7636H58.9146V56.061H57.8384V57.7636H55.9731V58.8398H57.8384V75.5312H58.9146V58.8398H73.4865V57.7636Z" fill="white"/>
</g>
<defs>
<clipPath id="clip0_8596_33223">
<rect width="118.587" height="77.0001" fill="white" transform="translate(0.707031)"/>
</clipPath>
</defs>
</svg>